<svg xmlns="http://www.w3.org/2000/svg" viewBox="0 0 720 480" width="720" height="480">
<defs>
  <linearGradient id="paper" x1="0" y1="0" x2="0.7" y2="1">
    <stop offset="0" stop-color="#241d15"/><stop offset="1" stop-color="#0d0a07"/>
  </linearGradient>
  <radialGradient id="glow" cx="0.42" cy="0.32" r="0.75">
    <stop offset="0" stop-color="#c9954a" stop-opacity=".85"/>
    <stop offset="1" stop-color="#c9954a" stop-opacity="0"/>
  </radialGradient>
  <filter id="grain" x="0" y="0" width="100%" height="100%">
    <feTurbulence type="fractalNoise" baseFrequency="0.9" numOctaves="3" seed="37"/>
    <feColorMatrix type="saturate" values="0"/>
    <feComponentTransfer><feFuncA type="linear" slope=".16"/></feComponentTransfer>
    <feBlend in2="SourceGraphic" mode="multiply"/>
  </filter>
  <filter id="soft"><feGaussianBlur stdDeviation="5.33"/></filter>
</defs>
<rect width="720" height="480" fill="url(#paper)"/>
<rect width="720" height="480" fill="url(#glow)"/>
<g><circle cx="470" cy="196" r="86" fill="#c9954a" fill-opacity=".55"/><circle cx="470" cy="196" r="86" fill="none" stroke="#e8d3a9" stroke-opacity=".4"/><line x1="0" y1="250.00" x2="720" y2="249.40" stroke="#e8d3a9" stroke-opacity="0.05" stroke-width="0.66"/><line x1="0" y1="255.20" x2="720" y2="254.98" stroke="#e8d3a9" stroke-opacity="0.06" stroke-width="1.30"/><line x1="0" y1="260.40" x2="720" y2="258.95" stroke="#e8d3a9" stroke-opacity="0.07" stroke-width="1.10"/><line x1="0" y1="265.60" x2="720" y2="265.91" stroke="#e8d3a9" stroke-opacity="0.07" stroke-width="1.57"/><line x1="0" y1="270.80" x2="720" y2="270.59" stroke="#e8d3a9" stroke-opacity="0.08" stroke-width="1.55"/><line x1="0" y1="276.00" x2="720" y2="276.76" stroke="#e8d3a9" stroke-opacity="0.09" stroke-width="0.96"/><line x1="0" y1="281.20" x2="720" y2="282.23" stroke="#e8d3a9" stroke-opacity="0.10" stroke-width="0.63"/><line x1="0" y1="286.40" x2="720" y2="285.57" stroke="#e8d3a9" stroke-opacity="0.10" stroke-width="1.09"/><line x1="0" y1="291.60" x2="720" y2="292.12" stroke="#e8d3a9" stroke-opacity="0.11" stroke-width="1.39"/><line x1="0" y1="296.80" x2="720" y2="295.46" stroke="#e8d3a9" stroke-opacity="0.12" stroke-width="0.79"/><line x1="0" y1="302.00" x2="720" y2="301.02" stroke="#e8d3a9" stroke-opacity="0.13" stroke-width="0.88"/><line x1="0" y1="307.20" x2="720" y2="307.64" stroke="#e8d3a9" stroke-opacity="0.13" stroke-width="1.54"/><line x1="0" y1="312.40" x2="720" y2="311.34" stroke="#e8d3a9" stroke-opacity="0.14" stroke-width="0.88"/><line x1="0" y1="317.60" x2="720" y2="318.12" stroke="#e8d3a9" stroke-opacity="0.15" stroke-width="1.25"/><line x1="0" y1="322.80" x2="720" y2="322.68" stroke="#e8d3a9" stroke-opacity="0.16" stroke-width="1.36"/><line x1="0" y1="328.00" x2="720" y2="326.87" stroke="#e8d3a9" stroke-opacity="0.16" stroke-width="0.91"/><line x1="0" y1="333.20" x2="720" y2="332.87" stroke="#e8d3a9" stroke-opacity="0.17" stroke-width="0.82"/><line x1="0" y1="338.40" x2="720" y2="339.19" stroke="#e8d3a9" stroke-opacity="0.18" stroke-width="0.63"/><line x1="0" y1="343.60" x2="720" y2="342.79" stroke="#e8d3a9" stroke-opacity="0.19" stroke-width="0.76"/><line x1="0" y1="348.80" x2="720" y2="348.57" stroke="#e8d3a9" stroke-opacity="0.19" stroke-width="1.05"/><line x1="0" y1="354.00" x2="720" y2="354.37" stroke="#e8d3a9" stroke-opacity="0.20" stroke-width="0.69"/><line x1="0" y1="359.20" x2="720" y2="360.12" stroke="#e8d3a9" stroke-opacity="0.21" stroke-width="1.14"/><line x1="0" y1="364.40" x2="720" y2="364.47" stroke="#e8d3a9" stroke-opacity="0.22" stroke-width="0.62"/><line x1="0" y1="369.60" x2="720" y2="370.51" stroke="#e8d3a9" stroke-opacity="0.22" stroke-width="0.97"/><line x1="0" y1="374.80" x2="720" y2="375.84" stroke="#e8d3a9" stroke-opacity="0.23" stroke-width="0.83"/><line x1="0" y1="380.00" x2="720" y2="379.96" stroke="#e8d3a9" stroke-opacity="0.24" stroke-width="0.91"/><line x1="0" y1="385.20" x2="720" y2="384.07" stroke="#e8d3a9" stroke-opacity="0.25" stroke-width="1.46"/><line x1="0" y1="390.40" x2="720" y2="389.67" stroke="#e8d3a9" stroke-opacity="0.26" stroke-width="1.23"/><line x1="0" y1="395.60" x2="720" y2="396.32" stroke="#e8d3a9" stroke-opacity="0.26" stroke-width="1.10"/><line x1="0" y1="400.80" x2="720" y2="401.81" stroke="#e8d3a9" stroke-opacity="0.27" stroke-width="1.25"/><line x1="0" y1="406.00" x2="720" y2="406.37" stroke="#e8d3a9" stroke-opacity="0.28" stroke-width="1.52"/><line x1="0" y1="411.20" x2="720" y2="409.93" stroke="#e8d3a9" stroke-opacity="0.29" stroke-width="1.38"/><line x1="0" y1="416.40" x2="720" y2="416.04" stroke="#e8d3a9" stroke-opacity="0.29" stroke-width="1.17"/><line x1="0" y1="421.60" x2="720" y2="422.31" stroke="#e8d3a9" stroke-opacity="0.30" stroke-width="0.78"/><line x1="0" y1="426.80" x2="720" y2="426.20" stroke="#e8d3a9" stroke-opacity="0.31" stroke-width="1.07"/><line x1="0" y1="432.00" x2="720" y2="432.78" stroke="#e8d3a9" stroke-opacity="0.32" stroke-width="1.43"/><line x1="0" y1="437.20" x2="720" y2="437.95" stroke="#e8d3a9" stroke-opacity="0.32" stroke-width="1.35"/><line x1="0" y1="442.40" x2="720" y2="442.96" stroke="#e8d3a9" stroke-opacity="0.33" stroke-width="0.79"/><line x1="0" y1="447.60" x2="720" y2="448.46" stroke="#e8d3a9" stroke-opacity="0.34" stroke-width="1.29"/><line x1="0" y1="452.80" x2="720" y2="451.86" stroke="#e8d3a9" stroke-opacity="0.35" stroke-width="1.48"/><line x1="0" y1="458.00" x2="720" y2="456.78" stroke="#e8d3a9" stroke-opacity="0.35" stroke-width="0.98"/><line x1="0" y1="463.20" x2="720" y2="464.46" stroke="#e8d3a9" stroke-opacity="0.36" stroke-width="1.54"/><line x1="0" y1="468.40" x2="720" y2="468.59" stroke="#e8d3a9" stroke-opacity="0.37" stroke-width="0.64"/><line x1="0" y1="473.60" x2="720" y2="472.54" stroke="#e8d3a9" stroke-opacity="0.38" stroke-width="1.28"/><line x1="0" y1="478.80" x2="720" y2="477.49" stroke="#e8d3a9" stroke-opacity="0.38" stroke-width="1.38"/><line x1="0" y1="484.00" x2="720" y2="484.97" stroke="#e8d3a9" stroke-opacity="0.39" stroke-width="0.68"/><path d="M0 250 L720 250" stroke="#e8d3a9" stroke-opacity=".6"/><path d="M218.33 250 l-4 -50.73 l8 0 z" fill="#e8d3a9" fill-opacity=".3"/><path d="M129.77 250 l-4 -54.30 l8 0 z" fill="#e8d3a9" fill-opacity=".3"/><path d="M467.83 250 l-4 -84.51 l8 0 z" fill="#e8d3a9" fill-opacity=".3"/><path d="M459.12 250 l-4 -37.11 l8 0 z" fill="#e8d3a9" fill-opacity=".3"/><path d="M588.83 250 l-4 -35.44 l8 0 z" fill="#e8d3a9" fill-opacity=".3"/><path d="M384.07 250 l-4 -39.46 l8 0 z" fill="#e8d3a9" fill-opacity=".3"/></g>
<rect width="720" height="480" filter="url(#grain)" opacity=".5" fill="#0d0a07"/>
<rect x=".5" y=".5" width="719" height="479" fill="none" stroke="#e8d3a9" stroke-opacity=".35"/>
</svg>